<svg xmlns="http://www.w3.org/2000/svg" viewBox="0 0 64 64" fill="none">
  <path d="M32 4 C32 4 20 16 20 24 L20 52 L44 52 L44 24 C44 16 32 4 32 4Z" fill="#047857" opacity="0.1"/>
  <path d="M32 8 L32 4 M30 4 L34 4" stroke="#047857" stroke-width="2" stroke-linecap="round"/>
  <path d="M32 12 C26 12 22 18 22 24 L22 50 L42 50 L42 24 C42 18 38 12 32 12Z" stroke="#047857" stroke-width="2" fill="none"/>
  <rect x="14" y="30" width="8" height="20" rx="1" stroke="#047857" stroke-width="1.5" fill="none"/>
  <rect x="42" y="30" width="8" height="20" rx="1" stroke="#047857" stroke-width="1.5" fill="none"/>
  <path d="M28 50 L28 40 Q32 36 36 40 L36 50" stroke="#047857" stroke-width="1.5" fill="#047857" fill-opacity="0.15"/>
  <line x1="12" y1="50" x2="52" y2="50" stroke="#047857" stroke-width="2"/>
</svg>
